<mxfile host="app.diagrams.net" modified="2022-08-26T00:07:31.981Z" agent="5.0 (Macintosh; Intel Mac OS X 10_15_7) AppleWebKit/605.1.15 (KHTML, like Gecko) Version/15.6.1 Safari/605.1.15" etag="q2AASdUQjADI4nGf1nJm" version="20.2.7" type="github">
  <diagram id="c3AFuEj24bwsZYCTcrrw" name="Page-1">
    <mxGraphModel dx="898" dy="496" grid="1" gridSize="10" guides="1" tooltips="1" connect="1" arrows="1" fold="1" page="1" pageScale="1" pageWidth="827" pageHeight="1169" math="0" shadow="0">
      <root>
        <mxCell id="0" />
        <mxCell id="1" parent="0" />
        <mxCell id="XaK7vZTml-RK6v3FLplC-1" style="edgeStyle=orthogonalEdgeStyle;rounded=0;orthogonalLoop=1;jettySize=auto;html=1;exitX=0.5;exitY=1;exitDx=0;exitDy=0;exitPerimeter=0;entryX=0.5;entryY=0;entryDx=0;entryDy=0;" edge="1" parent="1" source="XaK7vZTml-RK6v3FLplC-2" target="XaK7vZTml-RK6v3FLplC-4">
          <mxGeometry relative="1" as="geometry" />
        </mxCell>
        <mxCell id="XaK7vZTml-RK6v3FLplC-2" value="Inicio" style="strokeWidth=2;html=1;shape=mxgraph.flowchart.terminator;whiteSpace=wrap;" vertex="1" parent="1">
          <mxGeometry x="166" y="40" width="100" height="40" as="geometry" />
        </mxCell>
        <mxCell id="XaK7vZTml-RK6v3FLplC-3" style="edgeStyle=orthogonalEdgeStyle;rounded=0;orthogonalLoop=1;jettySize=auto;html=1;exitX=0.5;exitY=1;exitDx=0;exitDy=0;entryX=0.5;entryY=0;entryDx=0;entryDy=0;" edge="1" parent="1" source="XaK7vZTml-RK6v3FLplC-4" target="XaK7vZTml-RK6v3FLplC-18">
          <mxGeometry relative="1" as="geometry">
            <mxPoint x="215" y="170" as="targetPoint" />
          </mxGeometry>
        </mxCell>
        <mxCell id="XaK7vZTml-RK6v3FLplC-4" value="p, q" style="shape=parallelogram;html=1;strokeWidth=2;perimeter=parallelogramPerimeter;whiteSpace=wrap;rounded=1;arcSize=12;size=0.23;" vertex="1" parent="1">
          <mxGeometry x="120" y="100" width="190" height="40" as="geometry" />
        </mxCell>
        <mxCell id="XaK7vZTml-RK6v3FLplC-5" value="Fin" style="strokeWidth=2;html=1;shape=mxgraph.flowchart.terminator;whiteSpace=wrap;" vertex="1" parent="1">
          <mxGeometry x="165" y="450" width="100" height="40" as="geometry" />
        </mxCell>
        <mxCell id="XaK7vZTml-RK6v3FLplC-6" style="edgeStyle=orthogonalEdgeStyle;rounded=0;orthogonalLoop=1;jettySize=auto;html=1;exitX=0.5;exitY=1;exitDx=0;exitDy=0;exitPerimeter=0;entryX=0.5;entryY=0;entryDx=0;entryDy=0;entryPerimeter=0;" edge="1" parent="1" source="XaK7vZTml-RK6v3FLplC-10" target="XaK7vZTml-RK6v3FLplC-17">
          <mxGeometry relative="1" as="geometry">
            <mxPoint x="96" y="420" as="targetPoint" />
          </mxGeometry>
        </mxCell>
        <mxCell id="XaK7vZTml-RK6v3FLplC-7" value="SI" style="edgeLabel;html=1;align=center;verticalAlign=middle;resizable=0;points=[];" vertex="1" connectable="0" parent="XaK7vZTml-RK6v3FLplC-6">
          <mxGeometry x="-0.3495" y="1" relative="1" as="geometry">
            <mxPoint as="offset" />
          </mxGeometry>
        </mxCell>
        <mxCell id="XaK7vZTml-RK6v3FLplC-8" style="edgeStyle=orthogonalEdgeStyle;rounded=0;orthogonalLoop=1;jettySize=auto;html=1;exitX=1;exitY=0.5;exitDx=0;exitDy=0;exitPerimeter=0;entryX=1;entryY=0.5;entryDx=0;entryDy=0;entryPerimeter=0;" edge="1" parent="1" source="XaK7vZTml-RK6v3FLplC-10" target="XaK7vZTml-RK6v3FLplC-5">
          <mxGeometry relative="1" as="geometry">
            <mxPoint x="322" y="445" as="targetPoint" />
            <Array as="points">
              <mxPoint x="330" y="275" />
              <mxPoint x="330" y="470" />
            </Array>
          </mxGeometry>
        </mxCell>
        <mxCell id="XaK7vZTml-RK6v3FLplC-9" value="NO" style="edgeLabel;html=1;align=center;verticalAlign=middle;resizable=0;points=[];" vertex="1" connectable="0" parent="XaK7vZTml-RK6v3FLplC-8">
          <mxGeometry x="-0.3232" relative="1" as="geometry">
            <mxPoint as="offset" />
          </mxGeometry>
        </mxCell>
        <mxCell id="XaK7vZTml-RK6v3FLplC-10" value="(p^3+q^3-2*p*q^2) &amp;lt; 970" style="strokeWidth=2;html=1;shape=mxgraph.flowchart.decision;whiteSpace=wrap;" vertex="1" parent="1">
          <mxGeometry x="120" y="240" width="190" height="70" as="geometry" />
        </mxCell>
        <mxCell id="XaK7vZTml-RK6v3FLplC-11" value="&lt;div style=&quot;font-style: normal; font-variant-caps: normal; font-weight: normal; letter-spacing: normal; text-align: start; text-indent: 0px; text-transform: none; word-spacing: 0px; -webkit-text-stroke-width: 0px; text-decoration: none; color: rgb(171, 178, 191); background-color: rgb(40, 44, 52); font-family: &amp;quot;Fira Code&amp;quot;, &amp;quot;Menlo for Powerline&amp;quot;, Menlo, Monaco, &amp;quot;Courier New&amp;quot;, monospace; font-size: 12px; line-height: 18px;&quot;&gt;&lt;div&gt;&lt;span style=&quot;color: rgb(127, 132, 142); font-style: italic;&quot;&gt;Mostrar resultados al usuario&lt;/span&gt;&lt;/div&gt;&lt;/div&gt;" style="text;whiteSpace=wrap;html=1;" vertex="1" parent="1">
          <mxGeometry x="360" y="405" width="240" height="30" as="geometry" />
        </mxCell>
        <mxCell id="XaK7vZTml-RK6v3FLplC-12" value="&lt;div style=&quot;font-style: normal; font-variant-caps: normal; font-weight: normal; letter-spacing: normal; text-align: start; text-indent: 0px; text-transform: none; word-spacing: 0px; -webkit-text-stroke-width: 0px; text-decoration: none; color: rgb(171, 178, 191); background-color: rgb(40, 44, 52); font-family: &amp;quot;Fira Code&amp;quot;, &amp;quot;Menlo for Powerline&amp;quot;, Menlo, Monaco, &amp;quot;Courier New&amp;quot;, monospace; font-size: 12px; line-height: 18px;&quot;&gt;&lt;div&gt;&lt;span style=&quot;color: rgb(127, 132, 142); font-style: italic;&quot;&gt;Desarrollo de operaciones&lt;/span&gt;&lt;/div&gt;&lt;/div&gt;" style="text;whiteSpace=wrap;html=1;" vertex="1" parent="1">
          <mxGeometry x="360" y="270" width="210" height="30" as="geometry" />
        </mxCell>
        <mxCell id="XaK7vZTml-RK6v3FLplC-13" value="&lt;meta charset=&quot;utf-8&quot;&gt;&lt;div style=&quot;font-style: normal; font-variant-caps: normal; font-weight: normal; letter-spacing: normal; text-align: start; text-indent: 0px; text-transform: none; word-spacing: 0px; -webkit-text-stroke-width: 0px; text-decoration: none; color: rgb(171, 178, 191); background-color: rgb(40, 44, 52); font-family: &amp;quot;Fira Code&amp;quot;, &amp;quot;Menlo for Powerline&amp;quot;, Menlo, Monaco, &amp;quot;Courier New&amp;quot;, monospace; font-size: 12px; line-height: 18px;&quot;&gt;&lt;div&gt;&lt;span style=&quot;color: rgb(127, 132, 142); font-style: italic;&quot;&gt;DeclaraciÃ³n de variables e ingrese de datos&lt;/span&gt;&lt;/div&gt;&lt;/div&gt;" style="text;whiteSpace=wrap;html=1;" vertex="1" parent="1">
          <mxGeometry x="340" y="105" width="340" height="30" as="geometry" />
        </mxCell>
        <mxCell id="XaK7vZTml-RK6v3FLplC-16" value="" style="edgeStyle=orthogonalEdgeStyle;rounded=0;orthogonalLoop=1;jettySize=auto;html=1;" edge="1" parent="1" source="XaK7vZTml-RK6v3FLplC-17" target="XaK7vZTml-RK6v3FLplC-5">
          <mxGeometry relative="1" as="geometry" />
        </mxCell>
        <mxCell id="XaK7vZTml-RK6v3FLplC-17" value="p, q" style="strokeWidth=2;html=1;shape=mxgraph.flowchart.document2;whiteSpace=wrap;size=0.25;" vertex="1" parent="1">
          <mxGeometry x="165" y="350" width="100" height="70" as="geometry" />
        </mxCell>
        <mxCell id="XaK7vZTml-RK6v3FLplC-20" style="edgeStyle=orthogonalEdgeStyle;rounded=0;orthogonalLoop=1;jettySize=auto;html=1;exitX=0.5;exitY=1;exitDx=0;exitDy=0;entryX=0.5;entryY=0;entryDx=0;entryDy=0;entryPerimeter=0;" edge="1" parent="1" source="XaK7vZTml-RK6v3FLplC-18" target="XaK7vZTml-RK6v3FLplC-10">
          <mxGeometry relative="1" as="geometry" />
        </mxCell>
        <mxCell id="XaK7vZTml-RK6v3FLplC-18" value="r =&amp;nbsp;p^3+q^3-2*p*q^2" style="rounded=1;whiteSpace=wrap;html=1;absoluteArcSize=1;arcSize=14;strokeWidth=2;" vertex="1" parent="1">
          <mxGeometry x="130" y="170" width="170" height="40" as="geometry" />
        </mxCell>
      </root>
    </mxGraphModel>
  </diagram>
</mxfile>
